<svg width="16" height="16" viewBox="0 0 16 16" fill="none" xmlns="http://www.w3.org/2000/svg">
<path d="M0.5 4C0.5 2.067 2.067 0.5 4 0.5H12C13.933 0.5 15.5 2.067 15.5 4V12C15.5 13.933 13.933 15.5 12 15.5H4C2.067 15.5 0.5 13.933 0.5 12V4Z" fill="#484848"/>
<path d="M0.5 4C0.5 2.067 2.067 0.5 4 0.5H12C13.933 0.5 15.5 2.067 15.5 4V12C15.5 13.933 13.933 15.5 12 15.5H4C2.067 15.5 0.5 13.933 0.5 12V4Z" stroke="#484848"/>
<path d="M12.6667 4.5L6.25004 10.9167L3.33337 8" stroke="white" stroke-linecap="round" stroke-linejoin="round"/>
</svg>
