<svg width="24" height="24" viewBox="0 0 24 24" fill="none" xmlns="http://www.w3.org/2000/svg">
<path d="M12.0003 3.27246C9.63024 3.27246 9.33279 3.28282 8.40191 3.32519C7.47285 3.36773 6.83869 3.51482 6.2838 3.73064C5.70981 3.95355 5.22292 4.25173 4.73784 4.73701C4.2524 5.2221 3.95423 5.70901 3.7306 6.28282C3.51424 6.83792 3.36697 7.47228 3.32516 8.40101C3.28352 9.33192 3.27261 9.62955 3.27261 11.9997C3.27261 14.3699 3.28316 14.6665 3.32534 15.5974C3.36807 16.5265 3.51515 17.1606 3.73078 17.7156C3.95387 18.2896 4.25204 18.7765 4.7373 19.2616C5.22219 19.747 5.70909 20.0459 6.2827 20.2688C6.83796 20.4846 7.4723 20.6317 8.40119 20.6743C9.33207 20.7166 9.62933 20.727 11.9993 20.727C14.3695 20.727 14.6661 20.7166 15.597 20.6743C16.526 20.6317 17.1609 20.4846 17.7162 20.2688C18.29 20.0459 18.7761 19.747 19.261 19.2616C19.7465 18.7765 20.0447 18.2896 20.2683 17.7157C20.4828 17.1606 20.6301 16.5263 20.6737 15.5976C20.7155 14.6666 20.7264 14.3699 20.7264 11.9997C20.7264 9.62955 20.7155 9.3321 20.6737 8.40119C20.6301 7.4721 20.4828 6.83791 20.2683 6.28301C20.0447 5.70901 19.7465 5.2221 19.261 4.73701C18.7756 4.25155 18.2902 3.95337 17.7156 3.73064C17.1593 3.51482 16.5248 3.36773 15.5957 3.32519C14.6648 3.28282 14.3685 3.27246 11.9976 3.27246H12.0003ZM11.2175 4.84519C11.4498 4.84482 11.7091 4.84519 12.0003 4.84519C14.3305 4.84519 14.6066 4.85355 15.5268 4.89537C16.3777 4.93428 16.8395 5.07646 17.1471 5.19592C17.5544 5.3541 17.8447 5.54319 18.15 5.84864C18.4554 6.1541 18.6445 6.44501 18.8031 6.85228C18.9225 7.15955 19.0649 7.62137 19.1036 8.47228C19.1454 9.39228 19.1545 9.66864 19.1545 11.9977C19.1545 14.3268 19.1454 14.6032 19.1036 15.5232C19.0647 16.3741 18.9225 16.8359 18.8031 17.1432C18.6449 17.5505 18.4554 17.8405 18.15 18.1457C17.8445 18.4512 17.5545 18.6403 17.1471 18.7985C16.8398 18.9185 16.3777 19.0603 15.5268 19.0992C14.6068 19.141 14.3305 19.1501 12.0003 19.1501C9.67006 19.1501 9.39388 19.141 8.47391 19.0992C7.62303 19.0599 7.16122 18.9177 6.85341 18.7983C6.44615 18.6401 6.15525 18.451 5.84981 18.1456C5.54436 17.8401 5.35528 17.5499 5.19674 17.1425C5.07729 16.8352 4.93493 16.3734 4.8962 15.5225C4.85438 14.6025 4.84602 14.3261 4.84602 11.9956C4.84602 9.66501 4.85438 9.3901 4.8962 8.4701C4.93511 7.61919 5.07729 7.15737 5.19674 6.84973C5.35491 6.44246 5.54436 6.15155 5.84981 5.8461C6.15525 5.54064 6.44615 5.35155 6.85341 5.19301C7.16104 5.07301 7.62303 4.93119 8.47391 4.8921C9.27898 4.85573 9.59097 4.84482 11.2175 4.84301V4.84519ZM16.6588 6.29428C16.0806 6.29428 15.6115 6.76282 15.6115 7.34119C15.6115 7.91937 16.0806 8.38846 16.6588 8.38846C17.2369 8.38846 17.706 7.91937 17.706 7.34119C17.706 6.76301 17.2369 6.29392 16.6588 6.29392V6.29428ZM12.0003 7.51791C9.52533 7.51791 7.51867 9.52464 7.51867 11.9997C7.51867 14.4748 9.52533 16.4806 12.0003 16.4806C14.4754 16.4806 16.4813 14.4748 16.4813 11.9997C16.4813 9.52464 14.4752 7.51791 12.0002 7.51791H12.0003ZM12.0003 9.09064C13.6068 9.09064 14.9094 10.393 14.9094 11.9997C14.9094 13.6063 13.6068 14.9088 12.0003 14.9088C10.3937 14.9088 9.09135 13.6063 9.09135 11.9997C9.09135 10.393 10.3937 9.09064 12.0003 9.09064Z" fill="#484848"/>
</svg>
