<svg width="24" height="24" viewBox="0 0 24 24" fill="none" xmlns="http://www.w3.org/2000/svg">
<path d="M4.31998 1.91992C2.99518 1.91992 1.91998 2.99512 1.91998 4.31992V19.6799C1.91998 21.0047 2.99518 22.0799 4.31998 22.0799H19.68C21.0048 22.0799 22.08 21.0047 22.08 19.6799V4.31992C22.08 2.99512 21.0048 1.91992 19.68 1.91992H4.31998ZM12 5.27992C15.9696 5.27992 19.2 7.85235 19.2 11.0155C19.2 12.2779 18.7004 13.4211 17.654 14.5443C16.9004 15.3987 15.677 16.3392 14.549 17.1168C13.421 17.8848 12.384 18.4893 12 18.6477C11.8464 18.7101 11.7312 18.7387 11.64 18.7387C11.3232 18.7387 11.3516 18.4035 11.3756 18.2643C11.3948 18.1587 11.4815 17.6587 11.4815 17.6587C11.5055 17.4811 11.5292 17.1988 11.4572 17.0212C11.3756 16.8244 11.0539 16.7232 10.8187 16.6752C7.36273 16.224 4.79998 13.8475 4.79998 11.0155C4.79998 7.85235 8.03038 5.27992 12 5.27992ZM11.5162 9.11898C11.2744 9.12347 11.04 9.30802 11.04 9.59992V12.4799C11.04 12.7449 11.255 12.9599 11.52 12.9599C11.7849 12.9599 12 12.7449 12 12.4799V11.098L13.049 12.7584C13.3207 13.1385 13.92 12.947 13.92 12.4799V9.59992C13.92 9.33496 13.7049 9.11992 13.44 9.11992C13.175 9.11992 12.96 9.33496 12.96 9.59992V11.0399L11.9109 9.32148C11.809 9.17892 11.6613 9.11629 11.5162 9.11898ZM7.19998 9.11992C6.93502 9.11992 6.71998 9.33496 6.71998 9.59992V12.4799C6.71998 12.7449 6.93502 12.9599 7.19998 12.9599H8.63998C8.90494 12.9599 9.11998 12.7449 9.11998 12.4799C9.11998 12.215 8.90494 11.9999 8.63998 11.9999H7.67998V9.59992C7.67998 9.33496 7.46494 9.11992 7.19998 9.11992ZM10.08 9.11992C9.81502 9.11992 9.59998 9.33496 9.59998 9.59992V12.4799C9.59998 12.7449 9.81502 12.9599 10.08 12.9599C10.3449 12.9599 10.56 12.7449 10.56 12.4799V9.59992C10.56 9.33496 10.3449 9.11992 10.08 9.11992ZM14.88 9.11992C14.615 9.11992 14.4 9.33496 14.4 9.59992V12.4799C14.4 12.7449 14.615 12.9599 14.88 12.9599H16.32C16.5849 12.9599 16.8 12.7449 16.8 12.4799C16.8 12.215 16.5849 11.9999 16.32 11.9999H15.36V11.5199H16.32C16.5854 11.5199 16.8 11.3049 16.8 11.0399C16.8 10.775 16.5854 10.5599 16.32 10.5599H15.36V10.0799H16.32C16.5849 10.0799 16.8 9.86488 16.8 9.59992C16.8 9.33496 16.5849 9.11992 16.32 9.11992H14.88Z" fill="#484848"/>
</svg>
